<svg width="334" height="58" viewBox="0 0 334 58" fill="none" xmlns="http://www.w3.org/2000/svg">
<path d="M0.624 57H10.614V36.576H18.458C29.558 36.576 36.884 31.692 36.884 20.962V19.852C36.884 9.122 29.928 4.09 18.162 4.09H0.624V57ZM10.614 29.324V11.786H18.088C23.786 11.786 27.042 13.932 27.042 19.926V20.962C27.042 26.512 23.934 29.324 18.088 29.324H10.614ZM41.0268 39.166C41.0268 50.562 49.0928 57.74 59.8968 57.74C70.5528 57.74 78.7668 50.636 78.7668 39.018V36.058C78.7668 24.588 70.6268 17.484 59.9708 17.484C49.1668 17.484 41.0268 24.736 41.0268 36.28V39.166ZM50.6468 39.166V36.058C50.6468 28.954 54.1988 24.81 59.9708 24.81C65.5948 24.81 69.0728 28.954 69.0728 36.132V39.166C69.0728 46.196 65.6688 50.488 59.9708 50.488C54.1248 50.488 50.6468 46.196 50.6468 39.166ZM86.6802 57H96.2262V0.833995H86.6802V57ZM127.277 52.412V57H136.601V31.396C136.601 21.332 130.533 17.484 121.431 17.484C112.699 17.484 106.261 21.924 105.225 28.806L114.105 30.138C114.623 27.252 117.065 24.588 120.987 24.588C125.723 24.588 127.129 27.03 127.129 31.692V34.06H122.393C111.663 34.06 103.967 37.168 103.967 46.048V46.418C103.967 54.262 109.443 57.74 116.177 57.74C121.949 57.74 125.131 55.446 127.277 52.412ZM118.915 51.006C115.067 51.006 113.365 49.156 113.365 45.9V45.604C113.365 41.386 116.917 39.906 122.689 39.906H127.129V44.124C127.129 48.49 123.651 51.006 118.915 51.006ZM146.077 57H155.549V36.576C155.549 29.176 159.989 26.734 168.573 26.808V17.78C161.395 17.706 157.843 20.37 155.549 25.402V18.298H146.077V57ZM179.797 12.748C182.905 12.748 185.347 10.454 185.347 7.42C185.347 4.386 182.905 2.092 179.797 2.092C176.689 2.092 174.247 4.386 174.247 7.42C174.247 10.454 176.615 12.748 179.797 12.748ZM175.061 57H184.533V18.298H175.061V57ZM223.873 45.456C223.873 37.834 218.545 35.17 209.591 33.468C203.671 32.21 201.599 31.1 201.599 28.436C201.599 25.92 203.819 24.218 207.593 24.218C211.293 24.218 213.809 26.216 214.401 29.25L223.059 27.992C222.097 21.85 216.473 17.484 207.667 17.484C199.823 17.484 192.719 21.554 192.719 29.102C192.719 36.132 196.641 38.944 206.261 41.016C211.959 42.126 214.623 43.31 214.623 46.344C214.623 49.304 212.403 51.006 208.185 51.006C203.449 51.006 201.081 48.268 200.563 44.938L191.609 46.196C192.571 52.782 198.417 57.74 208.111 57.74C217.953 57.74 223.873 53.3 223.873 45.456ZM260.139 57H267.539L280.489 18.298H274.347L263.987 50.784L253.331 18.298H246.967L260.139 57ZM291.795 10.602C294.015 10.602 295.791 8.826 295.791 6.606C295.791 4.386 294.015 2.61 291.795 2.61C289.649 2.61 287.799 4.386 287.799 6.606C287.799 8.826 289.575 10.602 291.795 10.602ZM288.835 57H294.829V18.298H288.835V57ZM333.085 51.746H309.775L333.455 23.108V18.298H305.113V23.404H326.647L302.967 51.968V57H333.085V51.746Z" fill="white"/>
</svg>
