<svg xmlns="http://www.w3.org/2000/svg" viewBox="0 0 458 131">
  <path d="M61.52 89h10V68.6h7.8c11.1 0 18.4-4.9 18.4-15.6v-1.1c0-10.7-7-15.8-18.7-15.8h-17.5zm10-27.7V43.8H79c5.7 0 9 2.1 9 8.1v1c0 5.6-3.1 8.4-9 8.4zm30.4 9.9c0 11.4 8.1 18.6 18.9 18.6s18.9-7.1 18.9-18.7v-3c0-11.5-8.1-18.6-18.8-18.6s-19 7.2-19 18.8zm9.6 0v-3.1c0-7.1 3.6-11.2 9.3-11.2s9.1 4.1 9.1 11.3v3c0 7-3.4 11.3-9.1 11.3s-9.3-4.3-9.3-11.3zm36.1 17.8h9.5V32.8h-9.5zm40.6-4.6V89h9.3V63.4c0-10.1-6.1-13.9-15.2-13.9-8.7 0-15.2 4.4-16.2 11.3l8.9 1.3a6.79 6.79 0 016.9-5.6c4.7 0 6.1 2.4 6.1 7.1V66h-4.7c-10.7 0-18.4 3.1-18.4 12v.4c0 7.8 5.5 11.3 12.2 11.3 5.7 0 8.9-2.3 11.1-5.3zm-8.4-1.4c-3.8 0-5.6-1.8-5.6-5.1v-.3c0-4.2 3.6-5.7 9.3-5.7h4.4v4.2c.1 4.4-3.3 6.9-8.1 6.9zM207 89h9.5V68.6c0-7.4 4.4-9.8 13-9.8v-9c-7.2-.1-10.7 2.6-13 7.6v-7.1H207zm33.7-44.3a5.41 5.41 0 005.6-5.3 5.61 5.61 0 00-11.2 0 5.29 5.29 0 005.62 5.3zM236 89h9.5V50.3H236zm48.8-11.5c0-7.6-5.3-10.3-14.3-12-5.9-1.3-8-2.4-8-5s2.2-4.2 6-4.2 6.2 2 6.8 5L284 60c-1-6.1-6.6-10.5-15.4-10.5-7.8 0-14.9 4.1-14.9 11.6 0 7 3.9 9.8 13.5 11.9 5.7 1.1 8.4 2.3 8.4 5.3s-2.2 4.7-6.4 4.7c-4.7 0-7.1-2.7-7.6-6.1l-9 1.3c1 6.6 6.8 11.5 16.5 11.5s15.7-4.4 15.7-12.2zM321 89h7.4l13-38.7h-6.1l-10.4 32.5-10.7-32.5h-6.3zm31.7-46.4a4 4 0 000-8 4.08 4.08 0 00-4 4 4 4 0 004.02 4zm-3 46.4h6V50.3h-6zm44.3-5.3h-23.3l23.7-28.6v-4.8h-28.3v5.1h21.5L363.92 84v5H394z" fill="#fff"/>
</svg>
