<svg width="415" height="98" viewBox="0 0 415 98" fill="none" xmlns="http://www.w3.org/2000/svg"><path d="M79.624 78h9.99V57.576h7.844c11.1 0 18.426-4.884 18.426-15.614v-1.11c0-10.73-6.956-15.762-18.722-15.762H79.624V78zm9.99-27.676V32.786h7.474c5.698 0 8.954 2.146 8.954 8.14v1.036c0 5.55-3.108 8.362-8.954 8.362h-7.474zm30.413 9.842c0 11.396 8.066 18.574 18.87 18.574 10.656 0 18.87-7.104 18.87-18.722v-2.96c0-11.47-8.14-18.574-18.796-18.574-10.804 0-18.944 7.252-18.944 18.796v2.886zm9.62 0v-3.108c0-7.104 3.552-11.248 9.324-11.248 5.624 0 9.102 4.144 9.102 11.322v3.034c0 7.03-3.404 11.322-9.102 11.322-5.846 0-9.324-4.292-9.324-11.322zM165.68 78h9.546V21.834h-9.546V78zm40.597-4.588V78h9.324V52.396c0-10.064-6.068-13.912-15.17-13.912-8.732 0-15.17 4.44-16.206 11.322l8.88 1.332c.518-2.886 2.96-5.55 6.882-5.55 4.736 0 6.142 2.442 6.142 7.104v2.368h-4.736c-10.73 0-18.426 3.108-18.426 11.988v.37c0 7.844 5.476 11.322 12.21 11.322 5.772 0 8.954-2.294 11.1-5.328zm-8.362-1.406c-3.848 0-5.55-1.85-5.55-5.106v-.296c0-4.218 3.552-5.698 9.324-5.698h4.44v4.218c0 4.366-3.478 6.882-8.214 6.882zM225.077 78h9.472V57.576c0-7.4 4.44-9.842 13.024-9.768V38.78c-7.178-.074-10.73 2.59-13.024 7.622v-7.104h-9.472V78zm33.72-44.252c3.108 0 5.55-2.294 5.55-5.328 0-3.034-2.442-5.328-5.55-5.328-3.108 0-5.55 2.294-5.55 5.328 0 3.034 2.368 5.328 5.55 5.328zM254.061 78h9.472V39.298h-9.472V78zm48.812-11.544c0-7.622-5.328-10.286-14.282-11.988-5.92-1.258-7.992-2.368-7.992-5.032 0-2.516 2.22-4.218 5.994-4.218 3.7 0 6.216 1.998 6.808 5.032l8.658-1.258c-.962-6.142-6.586-10.508-15.392-10.508-7.844 0-14.948 4.07-14.948 11.618 0 7.03 3.922 9.842 13.542 11.914 5.698 1.11 8.362 2.294 8.362 5.328 0 2.96-2.22 4.662-6.438 4.662-4.736 0-7.104-2.738-7.622-6.068l-8.954 1.258c.962 6.586 6.808 11.544 16.502 11.544 9.842 0 15.762-4.44 15.762-12.284zM339.139 78h7.4l12.95-38.702h-6.142l-10.36 32.486-10.656-32.486h-6.364L339.139 78zm31.656-46.398a3.98 3.98 0 003.996-3.996 3.98 3.98 0 00-3.996-3.996c-2.146 0-3.996 1.776-3.996 3.996a3.98 3.98 0 003.996 3.996zM367.835 78h5.994V39.298h-5.994V78zm44.25-5.254h-23.31l23.68-28.638v-4.81h-28.342v5.106h21.534l-23.68 28.564V78h30.118v-5.254z" fill="#fff"/><rect y="52" width="9" height="26" rx="4.5" fill="url(#paint0_linear)"/><rect x="15" y="31" width="9" height="47" rx="4.5" fill="url(#paint1_linear)"/><rect x="30" y="39" width="9" height="39" rx="4.5" fill="url(#paint2_linear)"/><rect x="45" y="25" width="9" height="53" rx="4.5" fill="url(#paint3_linear)"/><defs><linearGradient id="paint0_linear" x1="4.5" y1="52" x2="4.5" y2="78" gradientUnits="userSpaceOnUse"><stop stop-color="#997AFC"/><stop offset="1" stop-color="#7F4AFA"/></linearGradient><linearGradient id="paint1_linear" x1="19.5" y1="31" x2="19.5" y2="78" gradientUnits="userSpaceOnUse"><stop stop-color="#4B92E5"/><stop offset="1" stop-color="#3672BB"/></linearGradient><linearGradient id="paint2_linear" x1="34.5" y1="39" x2="34.5" y2="78" gradientUnits="userSpaceOnUse"><stop stop-color="#DA62C4"/><stop offset="1" stop-color="#B1489E"/></linearGradient><linearGradient id="paint3_linear" x1="49.5" y1="25" x2="49.5" y2="78" gradientUnits="userSpaceOnUse"><stop stop-color="#4C9AAF"/><stop offset="1" stop-color="#33798C"/></linearGradient></defs></svg>
